<?xml version="1.0" encoding="utf-8" standalone="no"?>
<!DOCTYPE svg PUBLIC "-//W3C//DTD SVG 1.1//EN"
  "http://www.w3.org/Graphics/SVG/1.1/DTD/svg11.dtd">
<svg xmlns:xlink="http://www.w3.org/1999/xlink" width="394.160937pt" height="295.31625pt" viewBox="0 0 394.160937 295.31625" xmlns="http://www.w3.org/2000/svg" version="1.1">
 <metadata>
  <rdf:RDF xmlns:dc="http://purl.org/dc/elements/1.1/" xmlns:cc="http://creativecommons.org/ns#" xmlns:rdf="http://www.w3.org/1999/02/22-rdf-syntax-ns#">
   <cc:Work>
    <dc:type rdf:resource="http://purl.org/dc/dcmitype/StillImage"/>
    <dc:date>2026-07-24T14:51:13.036944</dc:date>
    <dc:format>image/svg+xml</dc:format>
    <dc:creator>
     <cc:Agent>
      <dc:title>Matplotlib v3.9.2, https://matplotlib.org/</dc:title>
     </cc:Agent>
    </dc:creator>
   </cc:Work>
  </rdf:RDF>
 </metadata>
 <defs>
  <style type="text/css">*{stroke-linejoin: round; stroke-linecap: butt}</style>
 </defs>
 <g id="figure_1">
  <g id="patch_1">
   <path d="M 0 295.31625 
L 394.160937 295.31625 
L 394.160937 0 
L 0 0 
z
" style="fill: #ffffff"/>
  </g>
  <g id="axes_1">
   <g id="patch_2">
    <path d="M 52.160938 257.76 
L 386.960938 257.76 
L 386.960938 36 
L 52.160938 36 
z
" style="fill: #ffffff"/>
   </g>
   <g id="PolyCollection_1">
    <defs>
     <path id="m528dd5b420" d="M 67.379119 -100.717093 
L 67.379119 -47.63625 
L 70.453499 -79.214885 
L 73.52788 -103.377926 
L 76.60226 -125.008472 
L 79.67664 -135.773704 
L 82.75102 -146.309524 
L 85.8254 -152.335852 
L 88.89978 -160.831332 
L 91.974161 -169.070438 
L 95.048541 -166.933694 
L 98.122921 -161.835145 
L 101.197301 -172.30458 
L 104.271681 -181.472942 
L 107.346061 -176.579928 
L 110.420442 -167.664732 
L 113.494822 -177.503957 
L 116.569202 -186.201365 
L 119.643582 -177.986487 
L 122.717962 -165.419643 
L 125.792342 -174.695945 
L 128.866723 -186.597055 
L 131.941103 -183.145285 
L 135.015483 -175.419681 
L 138.089863 -171.633754 
L 141.164243 -168.045136 
L 144.238623 -173.011504 
L 147.313004 -180.211858 
L 150.387384 -182.284972 
L 153.461764 -180.766633 
L 156.536144 -181.694977 
L 159.610524 -181.975036 
L 162.684904 -176.736206 
L 165.759285 -167.141437 
L 168.833665 -176.384913 
L 171.908045 -195.088018 
L 174.982425 -194.406488 
L 178.056805 -181.447103 
L 181.131185 -177.476012 
L 184.205566 -177.322426 
L 187.279946 -180.712842 
L 190.354326 -185.34447 
L 193.428706 -184.735414 
L 196.503086 -178.484946 
L 199.577466 -178.89362 
L 202.651847 -183.488168 
L 205.726227 -189.51427 
L 208.800607 -193.81564 
L 211.874987 -188.92766 
L 214.949367 -178.320538 
L 218.023747 -171.714512 
L 221.098128 -167.862664 
L 224.172508 -170.893013 
L 227.246888 -182.929751 
L 230.321268 -188.064632 
L 233.395648 -185.655363 
L 236.470028 -179.298272 
L 239.544409 -169.27579 
L 242.618789 -169.550579 
L 245.693169 -180.883159 
L 248.767549 -187.474498 
L 251.841929 -184.84816 
L 254.916309 -185.539662 
L 257.99069 -193.986061 
L 261.06507 -197.05375 
L 264.13945 -191.448808 
L 267.21383 -184.841737 
L 270.28821 -179.126691 
L 273.36259 -178.143686 
L 276.436971 -190.917491 
L 279.511351 -197.832074 
L 282.585731 -192.172832 
L 285.660111 -186.019971 
L 288.734491 -179.485705 
L 291.808871 -176.55223 
L 294.883252 -185.333322 
L 297.957632 -192.698276 
L 301.032012 -199.668727 
L 304.106392 -202.9615 
L 307.180772 -196.21376 
L 310.255152 -189.461207 
L 313.329533 -190.256136 
L 316.403913 -189.833159 
L 319.478293 -183.517218 
L 322.552673 -178.404136 
L 325.627053 -180.240048 
L 328.701433 -182.118811 
L 331.775814 -184.717071 
L 334.850194 -184.933633 
L 337.924574 -173.605296 
L 340.998954 -164.594999 
L 344.073334 -174.912481 
L 347.147714 -184.445159 
L 350.222095 -186.703815 
L 353.296475 -188.360893 
L 356.370855 -183.25617 
L 359.445235 -178.57812 
L 362.519615 -187.031274 
L 365.593995 -194.50983 
L 368.668376 -184.911267 
L 371.742756 -175.330727 
L 371.742756 -240.389294 
L 371.742756 -240.389294 
L 368.668376 -242.122539 
L 365.593995 -245.082675 
L 362.519615 -240.596427 
L 359.445235 -235.680881 
L 356.370855 -237.192814 
L 353.296475 -240.612126 
L 350.222095 -239.156697 
L 347.147714 -237.836918 
L 344.073334 -235.840192 
L 340.998954 -234.736917 
L 337.924574 -241.266768 
L 334.850194 -247.247089 
L 331.775814 -245.121117 
L 328.701433 -239.078525 
L 325.627053 -239.297479 
L 322.552673 -239.680336 
L 319.478293 -240.908764 
L 316.403913 -242.601112 
L 313.329533 -240.310639 
L 310.255152 -238.56199 
L 307.180772 -239.360824 
L 304.106392 -244.427507 
L 301.032012 -243.283119 
L 297.957632 -242.660656 
L 294.883252 -240.805507 
L 291.808871 -238.538236 
L 288.734491 -236.250922 
L 285.660111 -234.716423 
L 282.585731 -235.892609 
L 279.511351 -238.740162 
L 276.436971 -237.10934 
L 273.36259 -235.31281 
L 270.28821 -236.843291 
L 267.21383 -242.094637 
L 264.13945 -244.021651 
L 261.06507 -245.696449 
L 257.99069 -245.029455 
L 254.916309 -244.942515 
L 251.841929 -241.528811 
L 248.767549 -238.996769 
L 245.693169 -236.03285 
L 242.618789 -234.355157 
L 239.544409 -234.533886 
L 236.470028 -235.643888 
L 233.395648 -237.772971 
L 230.321268 -239.668554 
L 227.246888 -240.192896 
L 224.172508 -239.017759 
L 221.098128 -238.689943 
L 218.023747 -238.405995 
L 214.949367 -237.948555 
L 211.874987 -238.095723 
L 208.800607 -237.793316 
L 205.726227 -236.830528 
L 202.651847 -234.728263 
L 199.577466 -231.246831 
L 196.503086 -231.549958 
L 193.428706 -236.529022 
L 190.354326 -238.779017 
L 187.279946 -233.127642 
L 184.205566 -232.001522 
L 181.131185 -234.92415 
L 178.056805 -236.78777 
L 174.982425 -235.604883 
L 171.908045 -235.693779 
L 168.833665 -237.173488 
L 165.759285 -236.86791 
L 162.684904 -233.014446 
L 159.610524 -230.88201 
L 156.536144 -230.419534 
L 153.461764 -229.982622 
L 150.387384 -230.371394 
L 147.313004 -231.583584 
L 144.238623 -234.34745 
L 141.164243 -235.284398 
L 138.089863 -232.214652 
L 135.015483 -231.091885 
L 131.941103 -235.267328 
L 128.866723 -236.935732 
L 125.792342 -231.66648 
L 122.717962 -228.133722 
L 119.643582 -228.638493 
L 116.569202 -229.699979 
L 113.494822 -227.32079 
L 110.420442 -227.552702 
L 107.346061 -231.769002 
L 104.271681 -235.554025 
L 101.197301 -230.861943 
L 98.122921 -226.480836 
L 95.048541 -226.361962 
L 91.974161 -226.070673 
L 88.89978 -223.840438 
L 85.8254 -222.437034 
L 82.75102 -211.597861 
L 79.67664 -203.605779 
L 76.60226 -185.700243 
L 73.52788 -172.590932 
L 70.453499 -132.885801 
L 67.379119 -100.717093 
z
"/>
    </defs>
    <g clip-path="url(#p9593cd79f7)">
     <use xlink:href="#m528dd5b420" x="0" y="295.31625" style="fill: #1f77b4; fill-opacity: 0.18"/>
    </g>
   </g>
   <g id="PolyCollection_2">
    <defs>
     <path id="m9fcbd0558d" d="M 67.379119 -99.60108 
L 67.379119 -55.401857 
L 70.453499 -86.619162 
L 73.52788 -110.542414 
L 76.60226 -132.883401 
L 79.67664 -152.952728 
L 82.75102 -162.193486 
L 85.8254 -168.898921 
L 88.89978 -179.379978 
L 91.974161 -190.247678 
L 95.048541 -194.13828 
L 98.122921 -197.425835 
L 101.197301 -199.998793 
L 104.271681 -201.492495 
L 107.346061 -195.189265 
L 110.420442 -186.866185 
L 113.494822 -191.404367 
L 116.569202 -195.034962 
L 119.643582 -198.813899 
L 122.717962 -201.6625 
L 125.792342 -201.744017 
L 128.866723 -200.57269 
L 131.941103 -200.458863 
L 135.015483 -199.343859 
L 138.089863 -198.580464 
L 141.164243 -197.456652 
L 144.238623 -198.947823 
L 147.313004 -199.795875 
L 150.387384 -206.237838 
L 153.461764 -213.827107 
L 156.536144 -214.853469 
L 159.610524 -209.69253 
L 162.684904 -203.5908 
L 165.759285 -194.345105 
L 168.833665 -197.829616 
L 171.908045 -206.678304 
L 174.982425 -207.927783 
L 178.056805 -202.097892 
L 181.131185 -199.068782 
L 184.205566 -197.570292 
L 187.279946 -199.514367 
L 190.354326 -201.98557 
L 193.428706 -202.826554 
L 196.503086 -202.513042 
L 199.577466 -201.368891 
L 202.651847 -200.183548 
L 205.726227 -203.73331 
L 208.800607 -212.089096 
L 211.874987 -212.811311 
L 214.949367 -206.022125 
L 218.023747 -200.320948 
L 221.098128 -194.530914 
L 224.172508 -196.16012 
L 227.246888 -205.998659 
L 230.321268 -210.137409 
L 233.395648 -205.583127 
L 236.470028 -198.892296 
L 239.544409 -190.728697 
L 242.618789 -192.614136 
L 245.693169 -209.797334 
L 248.767549 -217.785181 
L 251.841929 -212.826427 
L 254.916309 -210.186609 
L 257.99069 -211.252202 
L 261.06507 -213.089252 
L 264.13945 -217.265905 
L 267.21383 -216.001239 
L 270.28821 -204.061082 
L 273.36259 -197.778184 
L 276.436971 -203.147777 
L 279.511351 -204.504293 
L 282.585731 -200.464796 
L 285.660111 -194.10795 
L 288.734491 -191.661505 
L 291.808871 -191.658982 
L 294.883252 -201.319516 
L 297.957632 -207.73628 
L 301.032012 -210.43013 
L 304.106392 -211.545251 
L 307.180772 -213.608533 
L 310.255152 -214.430306 
L 313.329533 -216.548124 
L 316.403913 -215.330142 
L 319.478293 -207.343794 
L 322.552673 -200.564064 
L 325.627053 -207.216143 
L 328.701433 -211.181602 
L 331.775814 -205.667712 
L 334.850194 -199.405027 
L 337.924574 -195.947182 
L 340.998954 -192.753266 
L 344.073334 -197.297151 
L 347.147714 -200.281025 
L 350.222095 -204.815132 
L 353.296475 -208.883531 
L 356.370855 -212.126142 
L 359.445235 -214.642747 
L 362.519615 -215.471061 
L 365.593995 -214.162922 
L 368.668376 -207.663328 
L 371.742756 -199.594428 
L 371.742756 -248.601525 
L 371.742756 -248.601525 
L 368.668376 -247.956816 
L 365.593995 -249.23625 
L 362.519615 -245.672388 
L 359.445235 -245.423903 
L 356.370855 -244.525746 
L 353.296475 -245.912739 
L 350.222095 -242.322384 
L 347.147714 -239.349674 
L 344.073334 -240.415799 
L 340.998954 -242.043112 
L 337.924574 -243.085781 
L 334.850194 -244.29676 
L 331.775814 -243.501813 
L 328.701433 -243.628172 
L 325.627053 -243.423886 
L 322.552673 -244.388849 
L 319.478293 -245.234572 
L 316.403913 -247.014594 
L 313.329533 -244.447574 
L 310.255152 -243.251048 
L 307.180772 -243.064243 
L 304.106392 -243.953063 
L 301.032012 -244.900627 
L 297.957632 -246.338582 
L 294.883252 -243.881972 
L 291.808871 -240.608524 
L 288.734491 -238.667666 
L 285.660111 -237.004461 
L 282.585731 -237.112396 
L 279.511351 -238.66767 
L 276.436971 -238.992313 
L 273.36259 -239.282067 
L 270.28821 -239.879907 
L 267.21383 -242.04302 
L 264.13945 -244.303658 
L 261.06507 -246.551747 
L 257.99069 -245.768185 
L 254.916309 -243.462215 
L 251.841929 -242.161154 
L 248.767549 -242.051531 
L 245.693169 -242.500061 
L 242.618789 -243.999147 
L 239.544409 -242.90486 
L 236.470028 -240.845139 
L 233.395648 -240.533437 
L 230.321268 -242.661989 
L 227.246888 -244.288466 
L 224.172508 -243.902164 
L 221.098128 -243.517592 
L 218.023747 -244.329834 
L 214.949367 -243.982489 
L 211.874987 -241.647991 
L 208.800607 -241.12405 
L 205.726227 -241.094507 
L 202.651847 -241.182529 
L 199.577466 -242.53079 
L 196.503086 -244.002272 
L 193.428706 -244.053529 
L 190.354326 -243.759263 
L 187.279946 -242.161726 
L 184.205566 -242.385053 
L 181.131185 -243.423612 
L 178.056805 -243.227999 
L 174.982425 -241.548287 
L 171.908045 -241.048556 
L 168.833665 -241.037 
L 165.759285 -240.864035 
L 162.684904 -240.365131 
L 159.610524 -240.835648 
L 156.536144 -240.478147 
L 153.461764 -240.503181 
L 150.387384 -240.16779 
L 147.313004 -241.24133 
L 144.238623 -241.33026 
L 141.164243 -243.354954 
L 138.089863 -242.56674 
L 135.015483 -241.422888 
L 131.941103 -237.868187 
L 128.866723 -236.83025 
L 125.792342 -239.02524 
L 122.717962 -240.323151 
L 119.643582 -235.935011 
L 116.569202 -233.558316 
L 113.494822 -233.342991 
L 110.420442 -234.995458 
L 107.346061 -236.7069 
L 104.271681 -238.600109 
L 101.197301 -239.101127 
L 98.122921 -239.835118 
L 95.048541 -239.075659 
L 91.974161 -237.883608 
L 88.89978 -231.40928 
L 85.8254 -225.800036 
L 82.75102 -219.450867 
L 79.67664 -213.219677 
L 76.60226 -183.083916 
L 73.52788 -155.801106 
L 70.453499 -124.896307 
L 67.379119 -99.60108 
z
"/>
    </defs>
    <g clip-path="url(#p9593cd79f7)">
     <use xlink:href="#m9fcbd0558d" x="0" y="295.31625" style="fill: #17becf; fill-opacity: 0.18"/>
    </g>
   </g>
   <g id="PolyCollection_3">
    <defs>
     <path id="m855518b56c" d="M 67.379119 -95.212685 
L 67.379119 -51.402835 
L 70.453499 -96.159296 
L 73.52788 -132.571592 
L 76.60226 -136.258926 
L 79.67664 -134.935932 
L 82.75102 -145.13174 
L 85.8254 -155.32294 
L 88.89978 -157.731982 
L 91.974161 -158.4059 
L 95.048541 -149.758085 
L 98.122921 -138.28212 
L 101.197301 -152.185865 
L 104.271681 -170.178038 
L 107.346061 -165.356483 
L 110.420442 -155.662796 
L 113.494822 -155.916543 
L 116.569202 -156.244619 
L 119.643582 -156.894471 
L 122.717962 -154.99141 
L 125.792342 -166.003076 
L 128.866723 -178.435712 
L 131.941103 -176.293318 
L 135.015483 -171.08488 
L 138.089863 -168.987062 
L 141.164243 -166.245069 
L 144.238623 -169.661875 
L 147.313004 -174.630719 
L 150.387384 -174.987629 
L 153.461764 -173.319122 
L 156.536144 -176.390931 
L 159.610524 -179.650402 
L 162.684904 -174.967039 
L 165.759285 -165.161002 
L 168.833665 -170.779417 
L 171.908045 -179.706801 
L 174.982425 -179.231366 
L 178.056805 -171.281274 
L 181.131185 -171.259573 
L 184.205566 -174.966499 
L 187.279946 -176.847813 
L 190.354326 -178.289523 
L 193.428706 -177.538196 
L 196.503086 -176.17744 
L 199.577466 -172.647889 
L 202.651847 -166.340462 
L 205.726227 -165.386671 
L 208.800607 -168.847971 
L 211.874987 -169.046798 
L 214.949367 -167.806062 
L 218.023747 -168.171068 
L 221.098128 -169.833124 
L 224.172508 -172.475651 
L 227.246888 -177.315566 
L 230.321268 -178.488627 
L 233.395648 -177.22818 
L 236.470028 -176.365118 
L 239.544409 -170.603306 
L 242.618789 -167.157018 
L 245.693169 -169.138823 
L 248.767549 -171.898362 
L 251.841929 -173.099031 
L 254.916309 -175.211011 
L 257.99069 -182.116317 
L 261.06507 -185.392462 
L 264.13945 -186.202512 
L 267.21383 -186.461864 
L 270.28821 -185.599903 
L 273.36259 -182.10435 
L 276.436971 -176.140701 
L 279.511351 -173.069296 
L 282.585731 -178.005024 
L 285.660111 -179.601932 
L 288.734491 -172.165616 
L 291.808871 -165.941501 
L 294.883252 -169.765655 
L 297.957632 -173.535392 
L 301.032012 -180.813513 
L 304.106392 -184.352348 
L 307.180772 -178.299809 
L 310.255152 -171.09054 
L 313.329533 -161.494993 
L 316.403913 -155.027857 
L 319.478293 -167.18213 
L 322.552673 -175.389529 
L 325.627053 -178.712392 
L 328.701433 -180.905582 
L 331.775814 -176.593311 
L 334.850194 -170.476577 
L 337.924574 -170.793111 
L 340.998954 -169.56197 
L 344.073334 -176.808132 
L 347.147714 -179.96455 
L 350.222095 -177.649822 
L 353.296475 -171.351157 
L 356.370855 -171.482654 
L 359.445235 -171.392142 
L 362.519615 -170.029991 
L 365.593995 -166.419447 
L 368.668376 -157.60726 
L 371.742756 -148.251096 
L 371.742756 -226.612439 
L 371.742756 -226.612439 
L 368.668376 -230.116543 
L 365.593995 -234.573853 
L 362.519615 -231.600899 
L 359.445235 -228.200209 
L 356.370855 -229.655269 
L 353.296475 -231.771731 
L 350.222095 -232.099103 
L 347.147714 -233.827143 
L 344.073334 -233.161172 
L 340.998954 -232.808743 
L 337.924574 -232.968478 
L 334.850194 -232.585944 
L 331.775814 -233.012788 
L 328.701433 -232.298206 
L 325.627053 -233.670895 
L 322.552673 -235.570007 
L 319.478293 -233.149893 
L 316.403913 -229.347349 
L 313.329533 -229.018978 
L 310.255152 -229.417737 
L 307.180772 -231.454704 
L 304.106392 -235.128122 
L 301.032012 -236.277565 
L 297.957632 -236.302241 
L 294.883252 -233.768905 
L 291.808871 -230.700313 
L 288.734491 -229.678122 
L 285.660111 -229.136974 
L 282.585731 -229.292454 
L 279.511351 -228.892131 
L 276.436971 -229.911772 
L 273.36259 -231.293853 
L 270.28821 -232.02382 
L 267.21383 -232.567595 
L 264.13945 -234.209328 
L 261.06507 -236.552453 
L 257.99069 -234.936201 
L 254.916309 -233.482315 
L 251.841929 -231.62896 
L 248.767549 -231.537748 
L 245.693169 -230.238348 
L 242.618789 -229.478293 
L 239.544409 -229.820541 
L 236.470028 -231.105231 
L 233.395648 -233.736481 
L 230.321268 -234.544464 
L 227.246888 -235.281533 
L 224.172508 -235.224055 
L 221.098128 -234.921142 
L 218.023747 -235.806044 
L 214.949367 -234.211756 
L 211.874987 -229.297506 
L 208.800607 -227.679136 
L 205.726227 -227.953587 
L 202.651847 -228.879462 
L 199.577466 -230.342388 
L 196.503086 -231.653031 
L 193.428706 -233.79742 
L 190.354326 -234.854351 
L 187.279946 -234.609335 
L 184.205566 -235.404816 
L 181.131185 -234.473101 
L 178.056805 -233.762448 
L 174.982425 -233.3747 
L 171.908045 -232.834945 
L 168.833665 -229.985335 
L 165.759285 -229.319037 
L 162.684904 -229.958401 
L 159.610524 -230.458484 
L 156.536144 -230.386053 
L 153.461764 -231.074579 
L 150.387384 -229.853223 
L 147.313004 -230.505004 
L 144.238623 -233.131169 
L 141.164243 -234.973814 
L 138.089863 -232.661125 
L 135.015483 -231.424075 
L 131.941103 -234.783614 
L 128.866723 -236.160643 
L 125.792342 -230.782844 
L 122.717962 -226.442826 
L 119.643582 -224.685608 
L 116.569202 -225.475898 
L 113.494822 -225.19522 
L 110.420442 -226.346033 
L 107.346061 -228.605794 
L 104.271681 -229.463076 
L 101.197301 -226.284357 
L 98.122921 -224.157263 
L 95.048541 -223.897993 
L 91.974161 -224.787431 
L 88.89978 -222.594154 
L 85.8254 -220.286008 
L 82.75102 -214.871217 
L 79.67664 -209.596024 
L 76.60226 -191.698316 
L 73.52788 -177.125102 
L 70.453499 -133.126033 
L 67.379119 -95.212685 
z
"/>
    </defs>
    <g clip-path="url(#p9593cd79f7)">
     <use xlink:href="#m855518b56c" x="0" y="295.31625" style="fill: #9467bd; fill-opacity: 0.18"/>
    </g>
   </g>
   <g id="PolyCollection_4">
    <defs>
     <path id="m37e6426f2a" d="M 67.379119 -113.369043 
L 67.379119 -76.166043 
L 70.453499 -106.297673 
L 73.52788 -126.091666 
L 76.60226 -135.766207 
L 79.67664 -136.420347 
L 82.75102 -145.100863 
L 85.8254 -153.136035 
L 88.89978 -155.537235 
L 91.974161 -157.672846 
L 95.048541 -151.899803 
L 98.122921 -144.687815 
L 101.197301 -159.725846 
L 104.271681 -175.89322 
L 107.346061 -169.673454 
L 110.420442 -159.035611 
L 113.494822 -161.062509 
L 116.569202 -161.636581 
L 119.643582 -158.129839 
L 122.717962 -152.510736 
L 125.792342 -161.566306 
L 128.866723 -173.078907 
L 131.941103 -174.887885 
L 135.015483 -173.538512 
L 138.089863 -171.591579 
L 141.164243 -166.702547 
L 144.238623 -171.605776 
L 147.313004 -179.059714 
L 150.387384 -177.168106 
L 153.461764 -171.87203 
L 156.536144 -173.43513 
L 159.610524 -177.918497 
L 162.684904 -181.161487 
L 165.759285 -181.258947 
L 168.833665 -183.844867 
L 171.908045 -182.258132 
L 174.982425 -177.400331 
L 178.056805 -168.982962 
L 181.131185 -169.728835 
L 184.205566 -174.976153 
L 187.279946 -175.961249 
L 190.354326 -176.278747 
L 193.428706 -177.796819 
L 196.503086 -176.336653 
L 199.577466 -177.101717 
L 202.651847 -176.847345 
L 205.726227 -175.084263 
L 208.800607 -173.553614 
L 211.874987 -165.43194 
L 214.949367 -152.840328 
L 218.023747 -150.622331 
L 221.098128 -162.327116 
L 224.172508 -167.491829 
L 227.246888 -164.961476 
L 230.321268 -161.596382 
L 233.395648 -159.211015 
L 236.470028 -157.815956 
L 239.544409 -151.094896 
L 242.618789 -147.87816 
L 245.693169 -153.141506 
L 248.767549 -158.780241 
L 251.841929 -164.760478 
L 254.916309 -172.484886 
L 257.99069 -184.07548 
L 261.06507 -187.289504 
L 264.13945 -181.937549 
L 267.21383 -178.862912 
L 270.28821 -182.287794 
L 273.36259 -180.211351 
L 276.436971 -169.996316 
L 279.511351 -163.382274 
L 282.585731 -169.855772 
L 285.660111 -170.114345 
L 288.734491 -157.403956 
L 291.808871 -147.581494 
L 294.883252 -152.069937 
L 297.957632 -157.643721 
L 301.032012 -174.174776 
L 304.106392 -181.983406 
L 307.180772 -165.930784 
L 310.255152 -153.334143 
L 313.329533 -157.277378 
L 316.403913 -157.88853 
L 319.478293 -158.250141 
L 322.552673 -156.284295 
L 325.627053 -154.427986 
L 328.701433 -151.3499 
L 331.775814 -160.480874 
L 334.850194 -165.169828 
L 337.924574 -164.356784 
L 340.998954 -163.955606 
L 344.073334 -173.621522 
L 347.147714 -179.946555 
L 350.222095 -172.420629 
L 353.296475 -162.957145 
L 356.370855 -161.763173 
L 359.445235 -159.899725 
L 362.519615 -162.611372 
L 365.593995 -161.973845 
L 368.668376 -147.295358 
L 371.742756 -131.943945 
L 371.742756 -218.044219 
L 371.742756 -218.044219 
L 368.668376 -222.934888 
L 365.593995 -228.552927 
L 362.519615 -225.887235 
L 359.445235 -224.711245 
L 356.370855 -225.164289 
L 353.296475 -225.826036 
L 350.222095 -228.930268 
L 347.147714 -232.884825 
L 344.073334 -230.272547 
L 340.998954 -227.991244 
L 337.924574 -228.214717 
L 334.850194 -228.632904 
L 331.775814 -226.32291 
L 328.701433 -225.88442 
L 325.627053 -224.402072 
L 322.552673 -226.467168 
L 319.478293 -225.431516 
L 316.403913 -225.375484 
L 313.329533 -224.336931 
L 310.255152 -223.317055 
L 307.180772 -225.513609 
L 304.106392 -229.129562 
L 301.032012 -227.442836 
L 297.957632 -224.467563 
L 294.883252 -222.414205 
L 291.808871 -221.938459 
L 288.734491 -224.045327 
L 285.660111 -227.36735 
L 282.585731 -227.064159 
L 279.511351 -224.353996 
L 276.436971 -225.914941 
L 273.36259 -228.750965 
L 270.28821 -229.663094 
L 267.21383 -229.880838 
L 264.13945 -231.711316 
L 261.06507 -235.65705 
L 257.99069 -233.789081 
L 254.916309 -230.518425 
L 251.841929 -227.282467 
L 248.767549 -222.926715 
L 245.693169 -221.620504 
L 242.618789 -225.685637 
L 239.544409 -225.829578 
L 236.470028 -225.578463 
L 233.395648 -226.724545 
L 230.321268 -227.344658 
L 227.246888 -228.608695 
L 224.172508 -230.486388 
L 221.098128 -229.040394 
L 218.023747 -223.532358 
L 214.949367 -223.620113 
L 211.874987 -227.343231 
L 208.800607 -233.188207 
L 205.726227 -236.172327 
L 202.651847 -237.693258 
L 199.577466 -235.377073 
L 196.503086 -235.385229 
L 193.428706 -238.141136 
L 190.354326 -238.351575 
L 187.279946 -236.277891 
L 184.205566 -235.150535 
L 181.131185 -234.252753 
L 178.056805 -234.066248 
L 174.982425 -233.545781 
L 171.908045 -234.874629 
L 168.833665 -239.782408 
L 165.759285 -241.12795 
L 162.684904 -238.103925 
L 159.610524 -234.394138 
L 156.536144 -231.320111 
L 153.461764 -230.27637 
L 150.387384 -232.162881 
L 147.313004 -234.369312 
L 144.238623 -236.385007 
L 141.164243 -237.485287 
L 138.089863 -237.100374 
L 135.015483 -236.390722 
L 131.941103 -235.663441 
L 128.866723 -235.29646 
L 125.792342 -233.193251 
L 122.717962 -230.813465 
L 119.643582 -231.176564 
L 116.569202 -231.402839 
L 113.494822 -231.128469 
L 110.420442 -232.39432 
L 107.346061 -233.542682 
L 104.271681 -233.911199 
L 101.197301 -231.166192 
L 98.122921 -229.268569 
L 95.048541 -230.228471 
L 91.974161 -230.600228 
L 88.89978 -227.142536 
L 85.8254 -223.981627 
L 82.75102 -216.015907 
L 79.67664 -207.24403 
L 76.60226 -183.919269 
L 73.52788 -165.43432 
L 70.453499 -136.133735 
L 67.379119 -113.369043 
z
"/>
    </defs>
    <g clip-path="url(#p9593cd79f7)">
     <use xlink:href="#m37e6426f2a" x="0" y="295.31625" style="fill: #8c564b; fill-opacity: 0.18"/>
    </g>
   </g>
   <g id="matplotlib.axis_1">
    <g id="xtick_1">
     <g id="line2d_1">
      <path d="M 61.167617 257.76 
L 61.167617 36 
" clip-path="url(#p9593cd79f7)" style="fill: none; stroke-dasharray: 0.8,1.32; stroke-dashoffset: 0; stroke: #b0b0b0; stroke-opacity: 0.4; stroke-width: 0.8"/>
     </g>
     <g id="line2d_2">
      <defs>
       <path id="mb4112c65cd" d="M 0 0 
L 0 3.5 
" style="stroke: #000000; stroke-width: 0.8"/>
      </defs>
      <g>
       <use xlink:href="#mb4112c65cd" x="61.167617" y="257.76" style="stroke: #000000; stroke-width: 0.8"/>
      </g>
     </g>
     <g id="text_1">
      <!-- 0.0 -->
      <g transform="translate(53.216054 272.358437) scale(0.1 -0.1)">
       <defs>
        <path id="DejaVuSans-30" d="M 2034 4250 
Q 1547 4250 1301 3770 
Q 1056 3291 1056 2328 
Q 1056 1369 1301 889 
Q 1547 409 2034 409 
Q 2525 409 2770 889 
Q 3016 1369 3016 2328 
Q 3016 3291 2770 3770 
Q 2525 4250 2034 4250 
z
M 2034 4750 
Q 2819 4750 3233 4129 
Q 3647 3509 3647 2328 
Q 3647 1150 3233 529 
Q 2819 -91 2034 -91 
Q 1250 -91 836 529 
Q 422 1150 422 2328 
Q 422 3509 836 4129 
Q 1250 4750 2034 4750 
z
" transform="scale(0.015625)"/>
        <path id="DejaVuSans-2e" d="M 684 794 
L 1344 794 
L 1344 0 
L 684 0 
L 684 794 
z
" transform="scale(0.015625)"/>
       </defs>
       <use xlink:href="#DejaVuSans-30"/>
       <use xlink:href="#DejaVuSans-2e" x="63.623047"/>
       <use xlink:href="#DejaVuSans-30" x="95.410156"/>
      </g>
     </g>
    </g>
    <g id="xtick_2">
     <g id="line2d_3">
      <path d="M 123.282644 257.76 
L 123.282644 36 
" clip-path="url(#p9593cd79f7)" style="fill: none; stroke-dasharray: 0.8,1.32; stroke-dashoffset: 0; stroke: #b0b0b0; stroke-opacity: 0.4; stroke-width: 0.8"/>
     </g>
     <g id="line2d_4">
      <g>
       <use xlink:href="#mb4112c65cd" x="123.282644" y="257.76" style="stroke: #000000; stroke-width: 0.8"/>
      </g>
     </g>
     <g id="text_2">
      <!-- 0.2 -->
      <g transform="translate(115.331082 272.358437) scale(0.1 -0.1)">
       <defs>
        <path id="DejaVuSans-32" d="M 1228 531 
L 3431 531 
L 3431 0 
L 469 0 
L 469 531 
Q 828 903 1448 1529 
Q 2069 2156 2228 2338 
Q 2531 2678 2651 2914 
Q 2772 3150 2772 3378 
Q 2772 3750 2511 3984 
Q 2250 4219 1831 4219 
Q 1534 4219 1204 4116 
Q 875 4013 500 3803 
L 500 4441 
Q 881 4594 1212 4672 
Q 1544 4750 1819 4750 
Q 2544 4750 2975 4387 
Q 3406 4025 3406 3419 
Q 3406 3131 3298 2873 
Q 3191 2616 2906 2266 
Q 2828 2175 2409 1742 
Q 1991 1309 1228 531 
z
" transform="scale(0.015625)"/>
       </defs>
       <use xlink:href="#DejaVuSans-30"/>
       <use xlink:href="#DejaVuSans-2e" x="63.623047"/>
       <use xlink:href="#DejaVuSans-32" x="95.410156"/>
      </g>
     </g>
    </g>
    <g id="xtick_3">
     <g id="line2d_5">
      <path d="M 185.397672 257.76 
L 185.397672 36 
" clip-path="url(#p9593cd79f7)" style="fill: none; stroke-dasharray: 0.8,1.32; stroke-dashoffset: 0; stroke: #b0b0b0; stroke-opacity: 0.4; stroke-width: 0.8"/>
     </g>
     <g id="line2d_6">
      <g>
       <use xlink:href="#mb4112c65cd" x="185.397672" y="257.76" style="stroke: #000000; stroke-width: 0.8"/>
      </g>
     </g>
     <g id="text_3">
      <!-- 0.4 -->
      <g transform="translate(177.44611 272.358437) scale(0.1 -0.1)">
       <defs>
        <path id="DejaVuSans-34" d="M 2419 4116 
L 825 1625 
L 2419 1625 
L 2419 4116 
z
M 2253 4666 
L 3047 4666 
L 3047 1625 
L 3713 1625 
L 3713 1100 
L 3047 1100 
L 3047 0 
L 2419 0 
L 2419 1100 
L 313 1100 
L 313 1709 
L 2253 4666 
z
" transform="scale(0.015625)"/>
       </defs>
       <use xlink:href="#DejaVuSans-30"/>
       <use xlink:href="#DejaVuSans-2e" x="63.623047"/>
       <use xlink:href="#DejaVuSans-34" x="95.410156"/>
      </g>
     </g>
    </g>
    <g id="xtick_4">
     <g id="line2d_7">
      <path d="M 247.5127 257.76 
L 247.5127 36 
" clip-path="url(#p9593cd79f7)" style="fill: none; stroke-dasharray: 0.8,1.32; stroke-dashoffset: 0; stroke: #b0b0b0; stroke-opacity: 0.4; stroke-width: 0.8"/>
     </g>
     <g id="line2d_8">
      <g>
       <use xlink:href="#mb4112c65cd" x="247.5127" y="257.76" style="stroke: #000000; stroke-width: 0.8"/>
      </g>
     </g>
     <g id="text_4">
      <!-- 0.6 -->
      <g transform="translate(239.561138 272.358437) scale(0.1 -0.1)">
       <defs>
        <path id="DejaVuSans-36" d="M 2113 2584 
Q 1688 2584 1439 2293 
Q 1191 2003 1191 1497 
Q 1191 994 1439 701 
Q 1688 409 2113 409 
Q 2538 409 2786 701 
Q 3034 994 3034 1497 
Q 3034 2003 2786 2293 
Q 2538 2584 2113 2584 
z
M 3366 4563 
L 3366 3988 
Q 3128 4100 2886 4159 
Q 2644 4219 2406 4219 
Q 1781 4219 1451 3797 
Q 1122 3375 1075 2522 
Q 1259 2794 1537 2939 
Q 1816 3084 2150 3084 
Q 2853 3084 3261 2657 
Q 3669 2231 3669 1497 
Q 3669 778 3244 343 
Q 2819 -91 2113 -91 
Q 1303 -91 875 529 
Q 447 1150 447 2328 
Q 447 3434 972 4092 
Q 1497 4750 2381 4750 
Q 2619 4750 2861 4703 
Q 3103 4656 3366 4563 
z
" transform="scale(0.015625)"/>
       </defs>
       <use xlink:href="#DejaVuSans-30"/>
       <use xlink:href="#DejaVuSans-2e" x="63.623047"/>
       <use xlink:href="#DejaVuSans-36" x="95.410156"/>
      </g>
     </g>
    </g>
    <g id="xtick_5">
     <g id="line2d_9">
      <path d="M 309.627728 257.76 
L 309.627728 36 
" clip-path="url(#p9593cd79f7)" style="fill: none; stroke-dasharray: 0.8,1.32; stroke-dashoffset: 0; stroke: #b0b0b0; stroke-opacity: 0.4; stroke-width: 0.8"/>
     </g>
     <g id="line2d_10">
      <g>
       <use xlink:href="#mb4112c65cd" x="309.627728" y="257.76" style="stroke: #000000; stroke-width: 0.8"/>
      </g>
     </g>
     <g id="text_5">
      <!-- 0.8 -->
      <g transform="translate(301.676165 272.358437) scale(0.1 -0.1)">
       <defs>
        <path id="DejaVuSans-38" d="M 2034 2216 
Q 1584 2216 1326 1975 
Q 1069 1734 1069 1313 
Q 1069 891 1326 650 
Q 1584 409 2034 409 
Q 2484 409 2743 651 
Q 3003 894 3003 1313 
Q 3003 1734 2745 1975 
Q 2488 2216 2034 2216 
z
M 1403 2484 
Q 997 2584 770 2862 
Q 544 3141 544 3541 
Q 544 4100 942 4425 
Q 1341 4750 2034 4750 
Q 2731 4750 3128 4425 
Q 3525 4100 3525 3541 
Q 3525 3141 3298 2862 
Q 3072 2584 2669 2484 
Q 3125 2378 3379 2068 
Q 3634 1759 3634 1313 
Q 3634 634 3220 271 
Q 2806 -91 2034 -91 
Q 1263 -91 848 271 
Q 434 634 434 1313 
Q 434 1759 690 2068 
Q 947 2378 1403 2484 
z
M 1172 3481 
Q 1172 3119 1398 2916 
Q 1625 2713 2034 2713 
Q 2441 2713 2670 2916 
Q 2900 3119 2900 3481 
Q 2900 3844 2670 4047 
Q 2441 4250 2034 4250 
Q 1625 4250 1398 4047 
Q 1172 3844 1172 3481 
z
" transform="scale(0.015625)"/>
       </defs>
       <use xlink:href="#DejaVuSans-30"/>
       <use xlink:href="#DejaVuSans-2e" x="63.623047"/>
       <use xlink:href="#DejaVuSans-38" x="95.410156"/>
      </g>
     </g>
    </g>
    <g id="xtick_6">
     <g id="line2d_11">
      <path d="M 371.742756 257.76 
L 371.742756 36 
" clip-path="url(#p9593cd79f7)" style="fill: none; stroke-dasharray: 0.8,1.32; stroke-dashoffset: 0; stroke: #b0b0b0; stroke-opacity: 0.4; stroke-width: 0.8"/>
     </g>
     <g id="line2d_12">
      <g>
       <use xlink:href="#mb4112c65cd" x="371.742756" y="257.76" style="stroke: #000000; stroke-width: 0.8"/>
      </g>
     </g>
     <g id="text_6">
      <!-- 1.0 -->
      <g transform="translate(363.791193 272.358437) scale(0.1 -0.1)">
       <defs>
        <path id="DejaVuSans-31" d="M 794 531 
L 1825 531 
L 1825 4091 
L 703 3866 
L 703 4441 
L 1819 4666 
L 2450 4666 
L 2450 531 
L 3481 531 
L 3481 0 
L 794 0 
L 794 531 
z
" transform="scale(0.015625)"/>
       </defs>
       <use xlink:href="#DejaVuSans-31"/>
       <use xlink:href="#DejaVuSans-2e" x="63.623047"/>
       <use xlink:href="#DejaVuSans-30" x="95.410156"/>
      </g>
     </g>
    </g>
    <g id="text_7">
     <!-- environment steps -->
     <g transform="translate(172.710938 286.036562) scale(0.1 -0.1)">
      <defs>
       <path id="DejaVuSans-65" d="M 3597 1894 
L 3597 1613 
L 953 1613 
Q 991 1019 1311 708 
Q 1631 397 2203 397 
Q 2534 397 2845 478 
Q 3156 559 3463 722 
L 3463 178 
Q 3153 47 2828 -22 
Q 2503 -91 2169 -91 
Q 1331 -91 842 396 
Q 353 884 353 1716 
Q 353 2575 817 3079 
Q 1281 3584 2069 3584 
Q 2775 3584 3186 3129 
Q 3597 2675 3597 1894 
z
M 3022 2063 
Q 3016 2534 2758 2815 
Q 2500 3097 2075 3097 
Q 1594 3097 1305 2825 
Q 1016 2553 972 2059 
L 3022 2063 
z
" transform="scale(0.015625)"/>
       <path id="DejaVuSans-6e" d="M 3513 2113 
L 3513 0 
L 2938 0 
L 2938 2094 
Q 2938 2591 2744 2837 
Q 2550 3084 2163 3084 
Q 1697 3084 1428 2787 
Q 1159 2491 1159 1978 
L 1159 0 
L 581 0 
L 581 3500 
L 1159 3500 
L 1159 2956 
Q 1366 3272 1645 3428 
Q 1925 3584 2291 3584 
Q 2894 3584 3203 3211 
Q 3513 2838 3513 2113 
z
" transform="scale(0.015625)"/>
       <path id="DejaVuSans-76" d="M 191 3500 
L 800 3500 
L 1894 563 
L 2988 3500 
L 3597 3500 
L 2284 0 
L 1503 0 
L 191 3500 
z
" transform="scale(0.015625)"/>
       <path id="DejaVuSans-69" d="M 603 3500 
L 1178 3500 
L 1178 0 
L 603 0 
L 603 3500 
z
M 603 4863 
L 1178 4863 
L 1178 4134 
L 603 4134 
L 603 4863 
z
" transform="scale(0.015625)"/>
       <path id="DejaVuSans-72" d="M 2631 2963 
Q 2534 3019 2420 3045 
Q 2306 3072 2169 3072 
Q 1681 3072 1420 2755 
Q 1159 2438 1159 1844 
L 1159 0 
L 581 0 
L 581 3500 
L 1159 3500 
L 1159 2956 
Q 1341 3275 1631 3429 
Q 1922 3584 2338 3584 
Q 2397 3584 2469 3576 
Q 2541 3569 2628 3553 
L 2631 2963 
z
" transform="scale(0.015625)"/>
       <path id="DejaVuSans-6f" d="M 1959 3097 
Q 1497 3097 1228 2736 
Q 959 2375 959 1747 
Q 959 1119 1226 758 
Q 1494 397 1959 397 
Q 2419 397 2687 759 
Q 2956 1122 2956 1747 
Q 2956 2369 2687 2733 
Q 2419 3097 1959 3097 
z
M 1959 3584 
Q 2709 3584 3137 3096 
Q 3566 2609 3566 1747 
Q 3566 888 3137 398 
Q 2709 -91 1959 -91 
Q 1206 -91 779 398 
Q 353 888 353 1747 
Q 353 2609 779 3096 
Q 1206 3584 1959 3584 
z
" transform="scale(0.015625)"/>
       <path id="DejaVuSans-6d" d="M 3328 2828 
Q 3544 3216 3844 3400 
Q 4144 3584 4550 3584 
Q 5097 3584 5394 3201 
Q 5691 2819 5691 2113 
L 5691 0 
L 5113 0 
L 5113 2094 
Q 5113 2597 4934 2840 
Q 4756 3084 4391 3084 
Q 3944 3084 3684 2787 
Q 3425 2491 3425 1978 
L 3425 0 
L 2847 0 
L 2847 2094 
Q 2847 2600 2669 2842 
Q 2491 3084 2119 3084 
Q 1678 3084 1418 2786 
Q 1159 2488 1159 1978 
L 1159 0 
L 581 0 
L 581 3500 
L 1159 3500 
L 1159 2956 
Q 1356 3278 1631 3431 
Q 1906 3584 2284 3584 
Q 2666 3584 2933 3390 
Q 3200 3197 3328 2828 
z
" transform="scale(0.015625)"/>
       <path id="DejaVuSans-74" d="M 1172 4494 
L 1172 3500 
L 2356 3500 
L 2356 3053 
L 1172 3053 
L 1172 1153 
Q 1172 725 1289 603 
Q 1406 481 1766 481 
L 2356 481 
L 2356 0 
L 1766 0 
Q 1100 0 847 248 
Q 594 497 594 1153 
L 594 3053 
L 172 3053 
L 172 3500 
L 594 3500 
L 594 4494 
L 1172 4494 
z
" transform="scale(0.015625)"/>
       <path id="DejaVuSans-20" transform="scale(0.015625)"/>
       <path id="DejaVuSans-73" d="M 2834 3397 
L 2834 2853 
Q 2591 2978 2328 3040 
Q 2066 3103 1784 3103 
Q 1356 3103 1142 2972 
Q 928 2841 928 2578 
Q 928 2378 1081 2264 
Q 1234 2150 1697 2047 
L 1894 2003 
Q 2506 1872 2764 1633 
Q 3022 1394 3022 966 
Q 3022 478 2636 193 
Q 2250 -91 1575 -91 
Q 1294 -91 989 -36 
Q 684 19 347 128 
L 347 722 
Q 666 556 975 473 
Q 1284 391 1588 391 
Q 1994 391 2212 530 
Q 2431 669 2431 922 
Q 2431 1156 2273 1281 
Q 2116 1406 1581 1522 
L 1381 1569 
Q 847 1681 609 1914 
Q 372 2147 372 2553 
Q 372 3047 722 3315 
Q 1072 3584 1716 3584 
Q 2034 3584 2315 3537 
Q 2597 3491 2834 3397 
z
" transform="scale(0.015625)"/>
       <path id="DejaVuSans-70" d="M 1159 525 
L 1159 -1331 
L 581 -1331 
L 581 3500 
L 1159 3500 
L 1159 2969 
Q 1341 3281 1617 3432 
Q 1894 3584 2278 3584 
Q 2916 3584 3314 3078 
Q 3713 2572 3713 1747 
Q 3713 922 3314 415 
Q 2916 -91 2278 -91 
Q 1894 -91 1617 61 
Q 1341 213 1159 525 
z
M 3116 1747 
Q 3116 2381 2855 2742 
Q 2594 3103 2138 3103 
Q 1681 3103 1420 2742 
Q 1159 2381 1159 1747 
Q 1159 1113 1420 752 
Q 1681 391 2138 391 
Q 2594 391 2855 752 
Q 3116 1113 3116 1747 
z
" transform="scale(0.015625)"/>
      </defs>
      <use xlink:href="#DejaVuSans-65"/>
      <use xlink:href="#DejaVuSans-6e" x="61.523438"/>
      <use xlink:href="#DejaVuSans-76" x="124.902344"/>
      <use xlink:href="#DejaVuSans-69" x="184.082031"/>
      <use xlink:href="#DejaVuSans-72" x="211.865234"/>
      <use xlink:href="#DejaVuSans-6f" x="250.728516"/>
      <use xlink:href="#DejaVuSans-6e" x="311.910156"/>
      <use xlink:href="#DejaVuSans-6d" x="375.289062"/>
      <use xlink:href="#DejaVuSans-65" x="472.701172"/>
      <use xlink:href="#DejaVuSans-6e" x="534.224609"/>
      <use xlink:href="#DejaVuSans-74" x="597.603516"/>
      <use xlink:href="#DejaVuSans-20" x="636.8125"/>
      <use xlink:href="#DejaVuSans-73" x="668.599609"/>
      <use xlink:href="#DejaVuSans-74" x="720.699219"/>
      <use xlink:href="#DejaVuSans-65" x="759.908203"/>
      <use xlink:href="#DejaVuSans-70" x="821.431641"/>
      <use xlink:href="#DejaVuSans-73" x="884.908203"/>
     </g>
    </g>
    <g id="text_8">
     <!-- 1e6 -->
     <g transform="translate(368.082812 285.036562) scale(0.1 -0.1)">
      <use xlink:href="#DejaVuSans-31"/>
      <use xlink:href="#DejaVuSans-65" x="63.623047"/>
      <use xlink:href="#DejaVuSans-36" x="125.146484"/>
     </g>
    </g>
   </g>
   <g id="matplotlib.axis_2">
    <g id="ytick_1">
     <g id="line2d_13">
      <path d="M 52.160938 250.6304 
L 386.960938 250.6304 
" clip-path="url(#p9593cd79f7)" style="fill: none; stroke-dasharray: 0.8,1.32; stroke-dashoffset: 0; stroke: #b0b0b0; stroke-opacity: 0.4; stroke-width: 0.8"/>
     </g>
     <g id="line2d_14">
      <defs>
       <path id="m9136c710a0" d="M 0 0 
L -3.5 0 
" style="stroke: #000000; stroke-width: 0.8"/>
      </defs>
      <g>
       <use xlink:href="#m9136c710a0" x="52.160938" y="250.6304" style="stroke: #000000; stroke-width: 0.8"/>
      </g>
     </g>
     <g id="text_9">
      <!-- −1.2 -->
      <g transform="translate(20.878125 254.429619) scale(0.1 -0.1)">
       <defs>
        <path id="DejaVuSans-2212" d="M 678 2272 
L 4684 2272 
L 4684 1741 
L 678 1741 
L 678 2272 
z
" transform="scale(0.015625)"/>
       </defs>
       <use xlink:href="#DejaVuSans-2212"/>
       <use xlink:href="#DejaVuSans-31" x="83.789062"/>
       <use xlink:href="#DejaVuSans-2e" x="147.412109"/>
       <use xlink:href="#DejaVuSans-32" x="179.199219"/>
      </g>
     </g>
    </g>
    <g id="ytick_2">
     <g id="line2d_15">
      <path d="M 52.160938 225.670634 
L 386.960938 225.670634 
" clip-path="url(#p9593cd79f7)" style="fill: none; stroke-dasharray: 0.8,1.32; stroke-dashoffset: 0; stroke: #b0b0b0; stroke-opacity: 0.4; stroke-width: 0.8"/>
     </g>
     <g id="line2d_16">
      <g>
       <use xlink:href="#m9136c710a0" x="52.160938" y="225.670634" style="stroke: #000000; stroke-width: 0.8"/>
      </g>
     </g>
     <g id="text_10">
      <!-- −1.0 -->
      <g transform="translate(20.878125 229.469853) scale(0.1 -0.1)">
       <use xlink:href="#DejaVuSans-2212"/>
       <use xlink:href="#DejaVuSans-31" x="83.789062"/>
       <use xlink:href="#DejaVuSans-2e" x="147.412109"/>
       <use xlink:href="#DejaVuSans-30" x="179.199219"/>
      </g>
     </g>
    </g>
    <g id="ytick_3">
     <g id="line2d_17">
      <path d="M 52.160938 200.710868 
L 386.960938 200.710868 
" clip-path="url(#p9593cd79f7)" style="fill: none; stroke-dasharray: 0.8,1.32; stroke-dashoffset: 0; stroke: #b0b0b0; stroke-opacity: 0.4; stroke-width: 0.8"/>
     </g>
     <g id="line2d_18">
      <g>
       <use xlink:href="#m9136c710a0" x="52.160938" y="200.710868" style="stroke: #000000; stroke-width: 0.8"/>
      </g>
     </g>
     <g id="text_11">
      <!-- −0.8 -->
      <g transform="translate(20.878125 204.510086) scale(0.1 -0.1)">
       <use xlink:href="#DejaVuSans-2212"/>
       <use xlink:href="#DejaVuSans-30" x="83.789062"/>
       <use xlink:href="#DejaVuSans-2e" x="147.412109"/>
       <use xlink:href="#DejaVuSans-38" x="179.199219"/>
      </g>
     </g>
    </g>
    <g id="ytick_4">
     <g id="line2d_19">
      <path d="M 52.160938 175.751101 
L 386.960938 175.751101 
" clip-path="url(#p9593cd79f7)" style="fill: none; stroke-dasharray: 0.8,1.32; stroke-dashoffset: 0; stroke: #b0b0b0; stroke-opacity: 0.4; stroke-width: 0.8"/>
     </g>
     <g id="line2d_20">
      <g>
       <use xlink:href="#m9136c710a0" x="52.160938" y="175.751101" style="stroke: #000000; stroke-width: 0.8"/>
      </g>
     </g>
     <g id="text_12">
      <!-- −0.6 -->
      <g transform="translate(20.878125 179.55032) scale(0.1 -0.1)">
       <use xlink:href="#DejaVuSans-2212"/>
       <use xlink:href="#DejaVuSans-30" x="83.789062"/>
       <use xlink:href="#DejaVuSans-2e" x="147.412109"/>
       <use xlink:href="#DejaVuSans-36" x="179.199219"/>
      </g>
     </g>
    </g>
    <g id="ytick_5">
     <g id="line2d_21">
      <path d="M 52.160938 150.791335 
L 386.960938 150.791335 
" clip-path="url(#p9593cd79f7)" style="fill: none; stroke-dasharray: 0.8,1.32; stroke-dashoffset: 0; stroke: #b0b0b0; stroke-opacity: 0.4; stroke-width: 0.8"/>
     </g>
     <g id="line2d_22">
      <g>
       <use xlink:href="#m9136c710a0" x="52.160938" y="150.791335" style="stroke: #000000; stroke-width: 0.8"/>
      </g>
     </g>
     <g id="text_13">
      <!-- −0.4 -->
      <g transform="translate(20.878125 154.590554) scale(0.1 -0.1)">
       <use xlink:href="#DejaVuSans-2212"/>
       <use xlink:href="#DejaVuSans-30" x="83.789062"/>
       <use xlink:href="#DejaVuSans-2e" x="147.412109"/>
       <use xlink:href="#DejaVuSans-34" x="179.199219"/>
      </g>
     </g>
    </g>
    <g id="ytick_6">
     <g id="line2d_23">
      <path d="M 52.160938 125.831568 
L 386.960938 125.831568 
" clip-path="url(#p9593cd79f7)" style="fill: none; stroke-dasharray: 0.8,1.32; stroke-dashoffset: 0; stroke: #b0b0b0; stroke-opacity: 0.4; stroke-width: 0.8"/>
     </g>
     <g id="line2d_24">
      <g>
       <use xlink:href="#m9136c710a0" x="52.160938" y="125.831568" style="stroke: #000000; stroke-width: 0.8"/>
      </g>
     </g>
     <g id="text_14">
      <!-- −0.2 -->
      <g transform="translate(20.878125 129.630787) scale(0.1 -0.1)">
       <use xlink:href="#DejaVuSans-2212"/>
       <use xlink:href="#DejaVuSans-30" x="83.789062"/>
       <use xlink:href="#DejaVuSans-2e" x="147.412109"/>
       <use xlink:href="#DejaVuSans-32" x="179.199219"/>
      </g>
     </g>
    </g>
    <g id="ytick_7">
     <g id="line2d_25">
      <path d="M 52.160938 100.871802 
L 386.960938 100.871802 
" clip-path="url(#p9593cd79f7)" style="fill: none; stroke-dasharray: 0.8,1.32; stroke-dashoffset: 0; stroke: #b0b0b0; stroke-opacity: 0.4; stroke-width: 0.8"/>
     </g>
     <g id="line2d_26">
      <g>
       <use xlink:href="#m9136c710a0" x="52.160938" y="100.871802" style="stroke: #000000; stroke-width: 0.8"/>
      </g>
     </g>
     <g id="text_15">
      <!-- 0.0 -->
      <g transform="translate(29.257813 104.671021) scale(0.1 -0.1)">
       <use xlink:href="#DejaVuSans-30"/>
       <use xlink:href="#DejaVuSans-2e" x="63.623047"/>
       <use xlink:href="#DejaVuSans-30" x="95.410156"/>
      </g>
     </g>
    </g>
    <g id="ytick_8">
     <g id="line2d_27">
      <path d="M 52.160938 75.912036 
L 386.960938 75.912036 
" clip-path="url(#p9593cd79f7)" style="fill: none; stroke-dasharray: 0.8,1.32; stroke-dashoffset: 0; stroke: #b0b0b0; stroke-opacity: 0.4; stroke-width: 0.8"/>
     </g>
     <g id="line2d_28">
      <g>
       <use xlink:href="#m9136c710a0" x="52.160938" y="75.912036" style="stroke: #000000; stroke-width: 0.8"/>
      </g>
     </g>
     <g id="text_16">
      <!-- 0.2 -->
      <g transform="translate(29.257813 79.711254) scale(0.1 -0.1)">
       <use xlink:href="#DejaVuSans-30"/>
       <use xlink:href="#DejaVuSans-2e" x="63.623047"/>
       <use xlink:href="#DejaVuSans-32" x="95.410156"/>
      </g>
     </g>
    </g>
    <g id="ytick_9">
     <g id="line2d_29">
      <path d="M 52.160938 50.952269 
L 386.960938 50.952269 
" clip-path="url(#p9593cd79f7)" style="fill: none; stroke-dasharray: 0.8,1.32; stroke-dashoffset: 0; stroke: #b0b0b0; stroke-opacity: 0.4; stroke-width: 0.8"/>
     </g>
     <g id="line2d_30">
      <g>
       <use xlink:href="#m9136c710a0" x="52.160938" y="50.952269" style="stroke: #000000; stroke-width: 0.8"/>
      </g>
     </g>
     <g id="text_17">
      <!-- 0.4 -->
      <g transform="translate(29.257813 54.751488) scale(0.1 -0.1)">
       <use xlink:href="#DejaVuSans-30"/>
       <use xlink:href="#DejaVuSans-2e" x="63.623047"/>
       <use xlink:href="#DejaVuSans-34" x="95.410156"/>
      </g>
     </g>
    </g>
    <g id="text_18">
     <!-- eval return (true, unshaped) -->
     <g transform="translate(14.798438 217.772969) rotate(-90) scale(0.1 -0.1)">
      <defs>
       <path id="DejaVuSans-61" d="M 2194 1759 
Q 1497 1759 1228 1600 
Q 959 1441 959 1056 
Q 959 750 1161 570 
Q 1363 391 1709 391 
Q 2188 391 2477 730 
Q 2766 1069 2766 1631 
L 2766 1759 
L 2194 1759 
z
M 3341 1997 
L 3341 0 
L 2766 0 
L 2766 531 
Q 2569 213 2275 61 
Q 1981 -91 1556 -91 
Q 1019 -91 701 211 
Q 384 513 384 1019 
Q 384 1609 779 1909 
Q 1175 2209 1959 2209 
L 2766 2209 
L 2766 2266 
Q 2766 2663 2505 2880 
Q 2244 3097 1772 3097 
Q 1472 3097 1187 3025 
Q 903 2953 641 2809 
L 641 3341 
Q 956 3463 1253 3523 
Q 1550 3584 1831 3584 
Q 2591 3584 2966 3190 
Q 3341 2797 3341 1997 
z
" transform="scale(0.015625)"/>
       <path id="DejaVuSans-6c" d="M 603 4863 
L 1178 4863 
L 1178 0 
L 603 0 
L 603 4863 
z
" transform="scale(0.015625)"/>
       <path id="DejaVuSans-75" d="M 544 1381 
L 544 3500 
L 1119 3500 
L 1119 1403 
Q 1119 906 1312 657 
Q 1506 409 1894 409 
Q 2359 409 2629 706 
Q 2900 1003 2900 1516 
L 2900 3500 
L 3475 3500 
L 3475 0 
L 2900 0 
L 2900 538 
Q 2691 219 2414 64 
Q 2138 -91 1772 -91 
Q 1169 -91 856 284 
Q 544 659 544 1381 
z
M 1991 3584 
L 1991 3584 
z
" transform="scale(0.015625)"/>
       <path id="DejaVuSans-28" d="M 1984 4856 
Q 1566 4138 1362 3434 
Q 1159 2731 1159 2009 
Q 1159 1288 1364 580 
Q 1569 -128 1984 -844 
L 1484 -844 
Q 1016 -109 783 600 
Q 550 1309 550 2009 
Q 550 2706 781 3412 
Q 1013 4119 1484 4856 
L 1984 4856 
z
" transform="scale(0.015625)"/>
       <path id="DejaVuSans-2c" d="M 750 794 
L 1409 794 
L 1409 256 
L 897 -744 
L 494 -744 
L 750 256 
L 750 794 
z
" transform="scale(0.015625)"/>
       <path id="DejaVuSans-68" d="M 3513 2113 
L 3513 0 
L 2938 0 
L 2938 2094 
Q 2938 2591 2744 2837 
Q 2550 3084 2163 3084 
Q 1697 3084 1428 2787 
Q 1159 2491 1159 1978 
L 1159 0 
L 581 0 
L 581 4863 
L 1159 4863 
L 1159 2956 
Q 1366 3272 1645 3428 
Q 1925 3584 2291 3584 
Q 2894 3584 3203 3211 
Q 3513 2838 3513 2113 
z
" transform="scale(0.015625)"/>
       <path id="DejaVuSans-64" d="M 2906 2969 
L 2906 4863 
L 3481 4863 
L 3481 0 
L 2906 0 
L 2906 525 
Q 2725 213 2448 61 
Q 2172 -91 1784 -91 
Q 1150 -91 751 415 
Q 353 922 353 1747 
Q 353 2572 751 3078 
Q 1150 3584 1784 3584 
Q 2172 3584 2448 3432 
Q 2725 3281 2906 2969 
z
M 947 1747 
Q 947 1113 1208 752 
Q 1469 391 1925 391 
Q 2381 391 2643 752 
Q 2906 1113 2906 1747 
Q 2906 2381 2643 2742 
Q 2381 3103 1925 3103 
Q 1469 3103 1208 2742 
Q 947 2381 947 1747 
z
" transform="scale(0.015625)"/>
       <path id="DejaVuSans-29" d="M 513 4856 
L 1013 4856 
Q 1481 4119 1714 3412 
Q 1947 2706 1947 2009 
Q 1947 1309 1714 600 
Q 1481 -109 1013 -844 
L 513 -844 
Q 928 -128 1133 580 
Q 1338 1288 1338 2009 
Q 1338 2731 1133 3434 
Q 928 4138 513 4856 
z
" transform="scale(0.015625)"/>
      </defs>
      <use xlink:href="#DejaVuSans-65"/>
      <use xlink:href="#DejaVuSans-76" x="61.523438"/>
      <use xlink:href="#DejaVuSans-61" x="120.703125"/>
      <use xlink:href="#DejaVuSans-6c" x="181.982422"/>
      <use xlink:href="#DejaVuSans-20" x="209.765625"/>
      <use xlink:href="#DejaVuSans-72" x="241.552734"/>
      <use xlink:href="#DejaVuSans-65" x="280.416016"/>
      <use xlink:href="#DejaVuSans-74" x="341.939453"/>
      <use xlink:href="#DejaVuSans-75" x="381.148438"/>
      <use xlink:href="#DejaVuSans-72" x="444.527344"/>
      <use xlink:href="#DejaVuSans-6e" x="483.890625"/>
      <use xlink:href="#DejaVuSans-20" x="547.269531"/>
      <use xlink:href="#DejaVuSans-28" x="579.056641"/>
      <use xlink:href="#DejaVuSans-74" x="618.070312"/>
      <use xlink:href="#DejaVuSans-72" x="657.279297"/>
      <use xlink:href="#DejaVuSans-75" x="698.392578"/>
      <use xlink:href="#DejaVuSans-65" x="761.771484"/>
      <use xlink:href="#DejaVuSans-2c" x="823.294922"/>
      <use xlink:href="#DejaVuSans-20" x="855.082031"/>
      <use xlink:href="#DejaVuSans-75" x="886.869141"/>
      <use xlink:href="#DejaVuSans-6e" x="950.248047"/>
      <use xlink:href="#DejaVuSans-73" x="1013.626953"/>
      <use xlink:href="#DejaVuSans-68" x="1065.726562"/>
      <use xlink:href="#DejaVuSans-61" x="1129.105469"/>
      <use xlink:href="#DejaVuSans-70" x="1190.384766"/>
      <use xlink:href="#DejaVuSans-65" x="1253.861328"/>
      <use xlink:href="#DejaVuSans-64" x="1315.384766"/>
      <use xlink:href="#DejaVuSans-29" x="1378.861328"/>
     </g>
    </g>
   </g>
   <g id="line2d_31">
    <path d="M 67.379119 219.798849 
L 70.453499 186.906793 
L 73.52788 154.014737 
L 76.60226 139.85007 
L 79.67664 126.075556 
L 82.75102 116.61133 
L 85.8254 107.33052 
L 88.89978 102.320477 
L 91.974161 97.588962 
L 95.048541 98.498922 
L 98.122921 99.910347 
L 101.197301 93.354059 
L 104.271681 85.89235 
L 107.346061 90.529319 
L 110.420442 96.854477 
L 113.494822 92.678002 
L 116.569202 86.751255 
L 119.643582 91.169134 
L 122.717962 97.605476 
L 125.792342 91.687995 
L 128.866723 82.990903 
L 131.941103 85.623465 
L 135.015483 91.161066 
L 138.089863 92.444919 
L 141.164243 92.497422 
L 144.238623 91.066711 
L 147.313004 89.154957 
L 150.387384 89.031229 
L 153.461764 89.553178 
L 156.536144 88.996374 
L 159.610524 88.008068 
L 162.684904 89.205632 
L 165.759285 91.367552 
L 168.833665 86.952572 
L 171.908045 79.348794 
L 174.982425 80.040734 
L 178.056805 85.139775 
L 181.131185 88.062147 
L 184.205566 89.720648 
L 187.279946 87.587912 
L 190.354326 83.054059 
L 193.428706 84.219478 
L 196.503086 89.31543 
L 199.577466 89.088649 
L 202.651847 84.869819 
L 205.726227 81.43722 
L 208.800607 78.645256 
L 211.874987 80.043633 
L 214.949367 85.148851 
L 218.023747 88.522327 
L 221.098128 90.233332 
L 224.172508 88.058177 
L 227.246888 81.834938 
L 230.321268 79.736048 
L 233.395648 82.299467 
L 236.470028 85.854343 
L 239.544409 90.626007 
L 242.618789 90.536001 
L 245.693169 83.963766 
L 248.767549 80.154755 
L 251.841929 80.352416 
L 254.916309 78.668703 
L 257.99069 74.0144 
L 261.06507 72.073904 
L 264.13945 74.807188 
L 267.21383 78.836993 
L 270.28821 85.307308 
L 273.36259 87.324196 
L 276.436971 80.155889 
L 279.511351 76.550968 
L 282.585731 81.023052 
L 285.660111 84.648017 
L 288.734491 86.155183 
L 291.808871 85.985886 
L 294.883252 81.174071 
L 297.957632 76.572524 
L 301.032012 72.6193 
L 304.106392 70.771017 
L 307.180772 76.194346 
L 310.255152 80.115676 
L 313.329533 78.179214 
L 316.403913 77.335877 
L 319.478293 81.35087 
L 322.552673 84.621103 
L 325.627053 84.074447 
L 328.701433 83.156293 
L 331.775814 80.009156 
L 334.850194 78.288886 
L 337.924574 86.794494 
L 340.998954 93.838758 
L 344.073334 88.023195 
L 347.147714 82.543203 
L 350.222095 80.838375 
L 353.296475 79.465399 
L 356.370855 83.180811 
L 359.445235 86.484388 
L 362.519615 80.109815 
L 365.593995 73.991835 
L 368.668376 80.190367 
L 371.742756 86.388898 
" clip-path="url(#p9593cd79f7)" style="fill: none; stroke: #1f77b4; stroke-width: 1.8; stroke-linecap: square"/>
   </g>
   <g id="line2d_32">
    <path d="M 67.379119 216.841117 
L 70.453499 189.637997 
L 73.52788 162.434877 
L 76.60226 137.013733 
L 79.67664 111.629714 
L 82.75102 103.9549 
L 85.8254 97.033671 
L 88.89978 89.071568 
L 91.974161 81.041583 
L 95.048541 78.650236 
L 98.122921 76.7601 
L 101.197301 75.607665 
L 104.271681 74.539059 
L 107.346061 78.584748 
L 110.420442 83.344058 
L 113.494822 82.652685 
L 116.569202 81.052865 
L 119.643582 77.571734 
L 122.717962 73.723518 
L 125.792342 74.494119 
L 128.866723 76.303954 
L 131.941103 74.994386 
L 135.015483 72.884971 
L 138.089863 72.119223 
L 141.164243 71.742431 
L 144.238623 72.41042 
L 147.313004 73.417257 
L 150.387384 70.686936 
L 153.461764 66.607085 
L 156.536144 67.144477 
L 159.610524 69.528765 
L 162.684904 72.440233 
L 165.759285 75.584281 
L 168.833665 74.191892 
L 171.908045 70.600018 
L 174.982425 69.676569 
L 178.056805 70.170722 
L 181.131185 70.84659 
L 184.205566 71.627969 
L 187.279946 71.259687 
L 190.354326 70.163285 
L 193.428706 69.527504 
L 196.503086 69.209393 
L 199.577466 70.430215 
L 202.651847 72.805238 
L 205.726227 71.963854 
L 208.800607 68.501695 
L 211.874987 67.30432 
L 214.949367 68.110407 
L 218.023747 70.166058 
L 221.098128 73.421291 
L 224.172508 72.853897 
L 227.246888 68.304601 
L 230.321268 67.394011 
L 233.395648 70.59674 
L 236.470028 73.150515 
L 239.544409 74.907846 
L 242.618789 73.324351 
L 245.693169 67.286419 
L 248.767549 64.399974 
L 251.841929 66.083182 
L 254.916309 66.585592 
L 257.99069 65.223583 
L 261.06507 64.147477 
L 264.13945 63.563759 
L 267.21383 65.22913 
L 270.28821 71.12808 
L 273.36259 74.557275 
L 276.436971 72.892597 
L 279.511351 72.630961 
L 282.585731 75.549552 
L 285.660111 77.41542 
L 288.734491 76.649483 
L 291.808871 74.784749 
L 294.883252 69.877193 
L 297.957632 65.975591 
L 301.032012 65.17568 
L 304.106392 64.736994 
L 307.180772 65.546169 
L 310.255152 65.771059 
L 313.329533 63.717236 
L 316.403913 62.897787 
L 319.478293 67.564444 
L 322.552673 70.975044 
L 325.627053 67.948358 
L 328.701433 65.761289 
L 331.775814 68.611934 
L 334.850194 71.331729 
L 337.924574 73.113769 
L 340.998954 74.687179 
L 344.073334 74.424661 
L 347.147714 73.851279 
L 350.222095 69.780694 
L 353.296475 65.872915 
L 356.370855 64.461491 
L 359.445235 63.079438 
L 362.519615 62.387624 
L 365.593995 61.775101 
L 368.668376 64.968565 
L 371.742756 68.162028 
" clip-path="url(#p9593cd79f7)" style="fill: none; stroke: #17becf; stroke-width: 1.8; stroke-linecap: square"/>
   </g>
   <g id="line2d_33">
    <path d="M 67.379119 219.418213 
L 70.453499 180.009515 
L 73.52788 140.600817 
L 76.60226 131.455458 
L 79.67664 122.940585 
L 82.75102 114.733801 
L 85.8254 106.540127 
L 88.89978 104.13359 
L 91.974161 102.104474 
L 95.048541 107.308018 
L 98.122921 113.154465 
L 101.197301 104.61022 
L 104.271681 94.43067 
L 107.346061 98.032881 
L 110.420442 103.558128 
L 113.494822 103.129715 
L 116.569202 101.709026 
L 119.643582 102.099873 
L 122.717962 102.844191 
L 125.792342 95.326574 
L 128.866723 85.950022 
L 131.941103 88.030948 
L 135.015483 93.049689 
L 138.089863 94.08533 
L 141.164243 93.967969 
L 144.238623 92.994727 
L 147.313004 91.743902 
L 150.387384 91.459701 
L 153.461764 91.524559 
L 156.536144 90.804066 
L 159.610524 89.769433 
L 162.684904 92.410063 
L 165.759285 96.672132 
L 168.833665 93.724989 
L 171.908045 87.28247 
L 174.982425 87.669346 
L 178.056805 91.684339 
L 181.131185 91.654715 
L 184.205566 89.276604 
L 187.279946 88.369606 
L 190.354326 88.394314 
L 193.428706 89.237904 
L 196.503086 90.64624 
L 199.577466 93.369375 
L 202.651847 97.078611 
L 205.726227 97.964557 
L 208.800607 96.550044 
L 211.874987 95.045398 
L 214.949367 93.461021 
L 218.023747 92.410819 
L 221.098128 91.873428 
L 224.172508 90.581193 
L 227.246888 88.502662 
L 230.321268 87.888311 
L 233.395648 88.929121 
L 236.470028 90.706244 
L 239.544409 93.387024 
L 242.618789 94.307384 
L 245.693169 92.880517 
L 248.767549 91.912507 
L 251.841929 91.609838 
L 254.916309 89.907216 
L 257.99069 85.994143 
L 261.06507 83.740893 
L 264.13945 84.346231 
L 267.21383 85.09515 
L 270.28821 86.11434 
L 273.36259 87.902997 
L 276.436971 91.27868 
L 279.511351 92.838161 
L 282.585731 90.280919 
L 285.660111 89.5944 
L 288.734491 93.584685 
L 291.808871 95.621553 
L 294.883252 92.248959 
L 297.957632 88.985281 
L 301.032012 86.057424 
L 304.106392 84.821979 
L 307.180772 89.433044 
L 310.255152 94.102726 
L 313.329533 99.001017 
L 316.403913 101.677322 
L 319.478293 94.478131 
L 322.552673 88.390784 
L 325.627053 88.001639 
L 328.701433 88.007816 
L 331.775814 90.385927 
L 334.850194 92.484564 
L 337.924574 92.580306 
L 340.998954 92.296294 
L 344.073334 88.670447 
L 347.147714 85.642878 
L 350.222095 89.345937 
L 353.296475 92.883164 
L 356.370855 93.877647 
L 359.445235 94.798637 
L 362.519615 93.99255 
L 365.593995 93.330423 
L 368.668376 99.578369 
L 371.742756 105.826316 
" clip-path="url(#p9593cd79f7)" style="fill: none; stroke: #9467bd; stroke-width: 1.8; stroke-linecap: square"/>
   </g>
   <g id="line2d_34">
    <path d="M 67.379119 200.211672 
L 70.453499 175.056199 
L 73.52788 149.900725 
L 76.60226 136.002862 
L 79.67664 122.339533 
L 82.75102 114.215886 
L 85.8254 106.327969 
L 88.89978 102.936971 
L 91.974161 99.839249 
L 95.048541 102.910561 
L 98.122921 106.530232 
L 101.197301 98.646223 
L 104.271681 89.454978 
L 107.346061 92.774375 
L 110.420442 97.839443 
L 113.494822 97.043503 
L 116.569202 95.27073 
L 119.643582 98.526845 
L 122.717962 102.764206 
L 125.792342 96.987407 
L 128.866723 88.957421 
L 131.941103 88.147048 
L 135.015483 89.187858 
L 138.089863 90.537639 
L 141.164243 91.97686 
L 144.238623 90.347038 
L 147.313004 87.72185 
L 150.387384 89.441931 
L 153.461764 92.731136 
L 156.536144 91.363392 
L 159.610524 88.132867 
L 162.684904 85.180933 
L 165.759285 82.351908 
L 168.833665 82.767652 
L 171.908045 84.756617 
L 174.982425 88.443855 
L 178.056805 93.033301 
L 181.131185 92.808285 
L 184.205566 89.787775 
L 187.279946 88.047398 
L 190.354326 87.117773 
L 193.428706 87.270242 
L 196.503086 88.168983 
L 199.577466 87.94529 
L 202.651847 86.879773 
L 205.726227 88.109987 
L 208.800607 91.210797 
L 211.874987 97.559654 
L 214.949367 106.781783 
L 218.023747 107.022178 
L 221.098128 98.640109 
L 224.172508 95.664476 
L 227.246888 98.320548 
L 230.321268 100.285122 
L 233.395648 101.468 
L 236.470028 102.932369 
L 239.544409 104.742205 
L 242.618789 105.900817 
L 245.693169 106.191132 
L 248.767549 104.207334 
L 251.841929 98.926075 
L 254.916309 92.99813 
L 257.99069 86.049104 
L 261.06507 83.387486 
L 264.13945 88.109735 
L 267.21383 90.692188 
L 270.28821 89.246791 
L 273.36259 90.478896 
L 276.436971 97.233349 
L 279.511351 100.529362 
L 282.585731 95.986243 
L 285.660111 95.222512 
L 288.734491 103.90725 
L 291.808871 109.810991 
L 294.883252 108.01351 
L 297.957632 104.308497 
L 301.032012 94.72193 
L 304.106392 89.472122 
L 307.180772 99.203847 
L 310.255152 106.512079 
L 313.329533 104.368691 
L 316.403913 102.727901 
L 319.478293 103.320885 
L 322.552673 103.960258 
L 325.627053 104.83738 
L 328.701433 105.049601 
L 331.775814 101.272419 
L 334.850194 97.996324 
L 337.924574 98.311346 
L 340.998954 97.997332 
L 344.073334 92.147796 
L 347.147714 87.330688 
L 350.222095 94.128379 
L 353.296475 100.567747 
L 356.370855 101.512814 
L 359.445235 102.368254 
L 362.519615 101.117429 
L 365.593995 100.101642 
L 368.668376 110.36767 
L 371.742756 120.633697 
" clip-path="url(#p9593cd79f7)" style="fill: none; stroke: #8c564b; stroke-width: 1.8; stroke-linecap: square"/>
   </g>
   <g id="patch_3">
    <path d="M 52.160938 257.76 
L 52.160938 36 
" style="fill: none; stroke: #000000; stroke-width: 0.8; stroke-linejoin: miter; stroke-linecap: square"/>
   </g>
   <g id="patch_4">
    <path d="M 386.960938 257.76 
L 386.960938 36 
" style="fill: none; stroke: #000000; stroke-width: 0.8; stroke-linejoin: miter; stroke-linecap: square"/>
   </g>
   <g id="patch_5">
    <path d="M 52.160938 257.76 
L 386.960938 257.76 
" style="fill: none; stroke: #000000; stroke-width: 0.8; stroke-linejoin: miter; stroke-linecap: square"/>
   </g>
   <g id="patch_6">
    <path d="M 52.160938 36 
L 386.960938 36 
" style="fill: none; stroke: #000000; stroke-width: 0.8; stroke-linejoin: miter; stroke-linecap: square"/>
   </g>
   <g id="legend_1">
    <g id="line2d_35">
     <path d="M 262.702187 210.42375 
L 270.702187 210.42375 
L 278.702187 210.42375 
" style="fill: none; stroke: #1f77b4; stroke-width: 1.8; stroke-linecap: square"/>
    </g>
    <g id="text_19">
     <!-- gaussian, n=10 -->
     <g transform="translate(285.102187 213.22375) scale(0.08 -0.08)">
      <defs>
       <path id="DejaVuSans-67" d="M 2906 1791 
Q 2906 2416 2648 2759 
Q 2391 3103 1925 3103 
Q 1463 3103 1205 2759 
Q 947 2416 947 1791 
Q 947 1169 1205 825 
Q 1463 481 1925 481 
Q 2391 481 2648 825 
Q 2906 1169 2906 1791 
z
M 3481 434 
Q 3481 -459 3084 -895 
Q 2688 -1331 1869 -1331 
Q 1566 -1331 1297 -1286 
Q 1028 -1241 775 -1147 
L 775 -588 
Q 1028 -725 1275 -790 
Q 1522 -856 1778 -856 
Q 2344 -856 2625 -561 
Q 2906 -266 2906 331 
L 2906 616 
Q 2728 306 2450 153 
Q 2172 0 1784 0 
Q 1141 0 747 490 
Q 353 981 353 1791 
Q 353 2603 747 3093 
Q 1141 3584 1784 3584 
Q 2172 3584 2450 3431 
Q 2728 3278 2906 2969 
L 2906 3500 
L 3481 3500 
L 3481 434 
z
" transform="scale(0.015625)"/>
       <path id="DejaVuSans-3d" d="M 678 2906 
L 4684 2906 
L 4684 2381 
L 678 2381 
L 678 2906 
z
M 678 1631 
L 4684 1631 
L 4684 1100 
L 678 1100 
L 678 1631 
z
" transform="scale(0.015625)"/>
      </defs>
      <use xlink:href="#DejaVuSans-67"/>
      <use xlink:href="#DejaVuSans-61" x="63.476562"/>
      <use xlink:href="#DejaVuSans-75" x="124.755859"/>
      <use xlink:href="#DejaVuSans-73" x="188.134766"/>
      <use xlink:href="#DejaVuSans-73" x="240.234375"/>
      <use xlink:href="#DejaVuSans-69" x="292.333984"/>
      <use xlink:href="#DejaVuSans-61" x="320.117188"/>
      <use xlink:href="#DejaVuSans-6e" x="381.396484"/>
      <use xlink:href="#DejaVuSans-2c" x="444.775391"/>
      <use xlink:href="#DejaVuSans-20" x="476.5625"/>
      <use xlink:href="#DejaVuSans-6e" x="508.349609"/>
      <use xlink:href="#DejaVuSans-3d" x="571.728516"/>
      <use xlink:href="#DejaVuSans-31" x="655.517578"/>
      <use xlink:href="#DejaVuSans-30" x="719.140625"/>
     </g>
    </g>
    <g id="line2d_36">
     <path d="M 262.702187 222.16625 
L 270.702187 222.16625 
L 278.702187 222.16625 
" style="fill: none; stroke: #17becf; stroke-width: 1.8; stroke-linecap: square"/>
    </g>
    <g id="text_20">
     <!-- kmoments (k=4), n=10 -->
     <g transform="translate(285.102187 224.96625) scale(0.08 -0.08)">
      <defs>
       <path id="DejaVuSans-6b" d="M 581 4863 
L 1159 4863 
L 1159 1991 
L 2875 3500 
L 3609 3500 
L 1753 1863 
L 3688 0 
L 2938 0 
L 1159 1709 
L 1159 0 
L 581 0 
L 581 4863 
z
" transform="scale(0.015625)"/>
      </defs>
      <use xlink:href="#DejaVuSans-6b"/>
      <use xlink:href="#DejaVuSans-6d" x="57.910156"/>
      <use xlink:href="#DejaVuSans-6f" x="155.322266"/>
      <use xlink:href="#DejaVuSans-6d" x="216.503906"/>
      <use xlink:href="#DejaVuSans-65" x="313.916016"/>
      <use xlink:href="#DejaVuSans-6e" x="375.439453"/>
      <use xlink:href="#DejaVuSans-74" x="438.818359"/>
      <use xlink:href="#DejaVuSans-73" x="478.027344"/>
      <use xlink:href="#DejaVuSans-20" x="530.126953"/>
      <use xlink:href="#DejaVuSans-28" x="561.914062"/>
      <use xlink:href="#DejaVuSans-6b" x="600.927734"/>
      <use xlink:href="#DejaVuSans-3d" x="658.837891"/>
      <use xlink:href="#DejaVuSans-34" x="742.626953"/>
      <use xlink:href="#DejaVuSans-29" x="806.25"/>
      <use xlink:href="#DejaVuSans-2c" x="845.263672"/>
      <use xlink:href="#DejaVuSans-20" x="877.050781"/>
      <use xlink:href="#DejaVuSans-6e" x="908.837891"/>
      <use xlink:href="#DejaVuSans-3d" x="972.216797"/>
      <use xlink:href="#DejaVuSans-31" x="1056.005859"/>
      <use xlink:href="#DejaVuSans-30" x="1119.628906"/>
     </g>
    </g>
    <g id="line2d_37">
     <path d="M 262.702187 233.90875 
L 270.702187 233.90875 
L 278.702187 233.90875 
" style="fill: none; stroke: #9467bd; stroke-width: 1.8; stroke-linecap: square"/>
    </g>
    <g id="text_21">
     <!-- cgf (num_t=16), n=10 -->
     <g transform="translate(285.102187 236.70875) scale(0.08 -0.08)">
      <defs>
       <path id="DejaVuSans-63" d="M 3122 3366 
L 3122 2828 
Q 2878 2963 2633 3030 
Q 2388 3097 2138 3097 
Q 1578 3097 1268 2742 
Q 959 2388 959 1747 
Q 959 1106 1268 751 
Q 1578 397 2138 397 
Q 2388 397 2633 464 
Q 2878 531 3122 666 
L 3122 134 
Q 2881 22 2623 -34 
Q 2366 -91 2075 -91 
Q 1284 -91 818 406 
Q 353 903 353 1747 
Q 353 2603 823 3093 
Q 1294 3584 2113 3584 
Q 2378 3584 2631 3529 
Q 2884 3475 3122 3366 
z
" transform="scale(0.015625)"/>
       <path id="DejaVuSans-66" d="M 2375 4863 
L 2375 4384 
L 1825 4384 
Q 1516 4384 1395 4259 
Q 1275 4134 1275 3809 
L 1275 3500 
L 2222 3500 
L 2222 3053 
L 1275 3053 
L 1275 0 
L 697 0 
L 697 3053 
L 147 3053 
L 147 3500 
L 697 3500 
L 697 3744 
Q 697 4328 969 4595 
Q 1241 4863 1831 4863 
L 2375 4863 
z
" transform="scale(0.015625)"/>
       <path id="DejaVuSans-5f" d="M 3263 -1063 
L 3263 -1509 
L -63 -1509 
L -63 -1063 
L 3263 -1063 
z
" transform="scale(0.015625)"/>
      </defs>
      <use xlink:href="#DejaVuSans-63"/>
      <use xlink:href="#DejaVuSans-67" x="54.980469"/>
      <use xlink:href="#DejaVuSans-66" x="118.457031"/>
      <use xlink:href="#DejaVuSans-20" x="153.662109"/>
      <use xlink:href="#DejaVuSans-28" x="185.449219"/>
      <use xlink:href="#DejaVuSans-6e" x="224.462891"/>
      <use xlink:href="#DejaVuSans-75" x="287.841797"/>
      <use xlink:href="#DejaVuSans-6d" x="351.220703"/>
      <use xlink:href="#DejaVuSans-5f" x="448.632812"/>
      <use xlink:href="#DejaVuSans-74" x="498.632812"/>
      <use xlink:href="#DejaVuSans-3d" x="537.841797"/>
      <use xlink:href="#DejaVuSans-31" x="621.630859"/>
      <use xlink:href="#DejaVuSans-36" x="685.253906"/>
      <use xlink:href="#DejaVuSans-29" x="748.876953"/>
      <use xlink:href="#DejaVuSans-2c" x="787.890625"/>
      <use xlink:href="#DejaVuSans-20" x="819.677734"/>
      <use xlink:href="#DejaVuSans-6e" x="851.464844"/>
      <use xlink:href="#DejaVuSans-3d" x="914.84375"/>
      <use xlink:href="#DejaVuSans-31" x="998.632812"/>
      <use xlink:href="#DejaVuSans-30" x="1062.255859"/>
     </g>
    </g>
    <g id="line2d_38">
     <path d="M 262.702187 245.87375 
L 270.702187 245.87375 
L 278.702187 245.87375 
" style="fill: none; stroke: #8c564b; stroke-width: 1.8; stroke-linecap: square"/>
    </g>
    <g id="text_22">
     <!-- st_scratch, n=10 -->
     <g transform="translate(285.102187 248.67375) scale(0.08 -0.08)">
      <use xlink:href="#DejaVuSans-73"/>
      <use xlink:href="#DejaVuSans-74" x="52.099609"/>
      <use xlink:href="#DejaVuSans-5f" x="91.308594"/>
      <use xlink:href="#DejaVuSans-73" x="141.308594"/>
      <use xlink:href="#DejaVuSans-63" x="193.408203"/>
      <use xlink:href="#DejaVuSans-72" x="248.388672"/>
      <use xlink:href="#DejaVuSans-61" x="289.501953"/>
      <use xlink:href="#DejaVuSans-74" x="350.78125"/>
      <use xlink:href="#DejaVuSans-63" x="389.990234"/>
      <use xlink:href="#DejaVuSans-68" x="444.970703"/>
      <use xlink:href="#DejaVuSans-2c" x="508.349609"/>
      <use xlink:href="#DejaVuSans-20" x="540.136719"/>
      <use xlink:href="#DejaVuSans-6e" x="571.923828"/>
      <use xlink:href="#DejaVuSans-3d" x="635.302734"/>
      <use xlink:href="#DejaVuSans-31" x="719.091797"/>
      <use xlink:href="#DejaVuSans-30" x="782.714844"/>
     </g>
    </g>
   </g>
  </g>
  <g id="text_23">
   <!-- car_flag — learning curves (mean ± 95% CI over seeds) -->
   <g transform="translate(46.030625 16.318125) scale(0.12 -0.12)">
    <defs>
     <path id="DejaVuSans-2014" d="M 313 1978 
L 6088 1978 
L 6088 1528 
L 313 1528 
L 313 1978 
z
" transform="scale(0.015625)"/>
     <path id="DejaVuSans-b1" d="M 2944 4013 
L 2944 2803 
L 4684 2803 
L 4684 2272 
L 2944 2272 
L 2944 1063 
L 2419 1063 
L 2419 2272 
L 678 2272 
L 678 2803 
L 2419 2803 
L 2419 4013 
L 2944 4013 
z
M 678 531 
L 4684 531 
L 4684 0 
L 678 0 
L 678 531 
z
" transform="scale(0.015625)"/>
     <path id="DejaVuSans-39" d="M 703 97 
L 703 672 
Q 941 559 1184 500 
Q 1428 441 1663 441 
Q 2288 441 2617 861 
Q 2947 1281 2994 2138 
Q 2813 1869 2534 1725 
Q 2256 1581 1919 1581 
Q 1219 1581 811 2004 
Q 403 2428 403 3163 
Q 403 3881 828 4315 
Q 1253 4750 1959 4750 
Q 2769 4750 3195 4129 
Q 3622 3509 3622 2328 
Q 3622 1225 3098 567 
Q 2575 -91 1691 -91 
Q 1453 -91 1209 -44 
Q 966 3 703 97 
z
M 1959 2075 
Q 2384 2075 2632 2365 
Q 2881 2656 2881 3163 
Q 2881 3666 2632 3958 
Q 2384 4250 1959 4250 
Q 1534 4250 1286 3958 
Q 1038 3666 1038 3163 
Q 1038 2656 1286 2365 
Q 1534 2075 1959 2075 
z
" transform="scale(0.015625)"/>
     <path id="DejaVuSans-35" d="M 691 4666 
L 3169 4666 
L 3169 4134 
L 1269 4134 
L 1269 2991 
Q 1406 3038 1543 3061 
Q 1681 3084 1819 3084 
Q 2600 3084 3056 2656 
Q 3513 2228 3513 1497 
Q 3513 744 3044 326 
Q 2575 -91 1722 -91 
Q 1428 -91 1123 -41 
Q 819 9 494 109 
L 494 744 
Q 775 591 1075 516 
Q 1375 441 1709 441 
Q 2250 441 2565 725 
Q 2881 1009 2881 1497 
Q 2881 1984 2565 2268 
Q 2250 2553 1709 2553 
Q 1456 2553 1204 2497 
Q 953 2441 691 2322 
L 691 4666 
z
" transform="scale(0.015625)"/>
     <path id="DejaVuSans-25" d="M 4653 2053 
Q 4381 2053 4226 1822 
Q 4072 1591 4072 1178 
Q 4072 772 4226 539 
Q 4381 306 4653 306 
Q 4919 306 5073 539 
Q 5228 772 5228 1178 
Q 5228 1588 5073 1820 
Q 4919 2053 4653 2053 
z
M 4653 2450 
Q 5147 2450 5437 2106 
Q 5728 1763 5728 1178 
Q 5728 594 5436 251 
Q 5144 -91 4653 -91 
Q 4153 -91 3862 251 
Q 3572 594 3572 1178 
Q 3572 1766 3864 2108 
Q 4156 2450 4653 2450 
z
M 1428 4353 
Q 1159 4353 1004 4120 
Q 850 3888 850 3481 
Q 850 3069 1003 2837 
Q 1156 2606 1428 2606 
Q 1700 2606 1854 2837 
Q 2009 3069 2009 3481 
Q 2009 3884 1853 4118 
Q 1697 4353 1428 4353 
z
M 4250 4750 
L 4750 4750 
L 1831 -91 
L 1331 -91 
L 4250 4750 
z
M 1428 4750 
Q 1922 4750 2215 4408 
Q 2509 4066 2509 3481 
Q 2509 2891 2217 2550 
Q 1925 2209 1428 2209 
Q 931 2209 642 2551 
Q 353 2894 353 3481 
Q 353 4063 643 4406 
Q 934 4750 1428 4750 
z
" transform="scale(0.015625)"/>
     <path id="DejaVuSans-43" d="M 4122 4306 
L 4122 3641 
Q 3803 3938 3442 4084 
Q 3081 4231 2675 4231 
Q 1875 4231 1450 3742 
Q 1025 3253 1025 2328 
Q 1025 1406 1450 917 
Q 1875 428 2675 428 
Q 3081 428 3442 575 
Q 3803 722 4122 1019 
L 4122 359 
Q 3791 134 3420 21 
Q 3050 -91 2638 -91 
Q 1578 -91 968 557 
Q 359 1206 359 2328 
Q 359 3453 968 4101 
Q 1578 4750 2638 4750 
Q 3056 4750 3426 4639 
Q 3797 4528 4122 4306 
z
" transform="scale(0.015625)"/>
     <path id="DejaVuSans-49" d="M 628 4666 
L 1259 4666 
L 1259 0 
L 628 0 
L 628 4666 
z
" transform="scale(0.015625)"/>
    </defs>
    <use xlink:href="#DejaVuSans-63"/>
    <use xlink:href="#DejaVuSans-61" x="54.980469"/>
    <use xlink:href="#DejaVuSans-72" x="116.259766"/>
    <use xlink:href="#DejaVuSans-5f" x="157.373047"/>
    <use xlink:href="#DejaVuSans-66" x="207.373047"/>
    <use xlink:href="#DejaVuSans-6c" x="242.578125"/>
    <use xlink:href="#DejaVuSans-61" x="270.361328"/>
    <use xlink:href="#DejaVuSans-67" x="331.640625"/>
    <use xlink:href="#DejaVuSans-20" x="395.117188"/>
    <use xlink:href="#DejaVuSans-2014" x="426.904297"/>
    <use xlink:href="#DejaVuSans-20" x="526.904297"/>
    <use xlink:href="#DejaVuSans-6c" x="558.691406"/>
    <use xlink:href="#DejaVuSans-65" x="586.474609"/>
    <use xlink:href="#DejaVuSans-61" x="647.998047"/>
    <use xlink:href="#DejaVuSans-72" x="709.277344"/>
    <use xlink:href="#DejaVuSans-6e" x="748.640625"/>
    <use xlink:href="#DejaVuSans-69" x="812.019531"/>
    <use xlink:href="#DejaVuSans-6e" x="839.802734"/>
    <use xlink:href="#DejaVuSans-67" x="903.181641"/>
    <use xlink:href="#DejaVuSans-20" x="966.658203"/>
    <use xlink:href="#DejaVuSans-63" x="998.445312"/>
    <use xlink:href="#DejaVuSans-75" x="1053.425781"/>
    <use xlink:href="#DejaVuSans-72" x="1116.804688"/>
    <use xlink:href="#DejaVuSans-76" x="1157.917969"/>
    <use xlink:href="#DejaVuSans-65" x="1217.097656"/>
    <use xlink:href="#DejaVuSans-73" x="1278.621094"/>
    <use xlink:href="#DejaVuSans-20" x="1330.720703"/>
    <use xlink:href="#DejaVuSans-28" x="1362.507812"/>
    <use xlink:href="#DejaVuSans-6d" x="1401.521484"/>
    <use xlink:href="#DejaVuSans-65" x="1498.933594"/>
    <use xlink:href="#DejaVuSans-61" x="1560.457031"/>
    <use xlink:href="#DejaVuSans-6e" x="1621.736328"/>
    <use xlink:href="#DejaVuSans-20" x="1685.115234"/>
    <use xlink:href="#DejaVuSans-b1" x="1716.902344"/>
    <use xlink:href="#DejaVuSans-20" x="1800.691406"/>
    <use xlink:href="#DejaVuSans-39" x="1832.478516"/>
    <use xlink:href="#DejaVuSans-35" x="1896.101562"/>
    <use xlink:href="#DejaVuSans-25" x="1959.724609"/>
    <use xlink:href="#DejaVuSans-20" x="2054.744141"/>
    <use xlink:href="#DejaVuSans-43" x="2086.53125"/>
    <use xlink:href="#DejaVuSans-49" x="2156.355469"/>
    <use xlink:href="#DejaVuSans-20" x="2185.847656"/>
    <use xlink:href="#DejaVuSans-6f" x="2217.634766"/>
    <use xlink:href="#DejaVuSans-76" x="2278.816406"/>
    <use xlink:href="#DejaVuSans-65" x="2337.996094"/>
    <use xlink:href="#DejaVuSans-72" x="2399.519531"/>
    <use xlink:href="#DejaVuSans-20" x="2440.632812"/>
    <use xlink:href="#DejaVuSans-73" x="2472.419922"/>
    <use xlink:href="#DejaVuSans-65" x="2524.519531"/>
    <use xlink:href="#DejaVuSans-65" x="2586.042969"/>
    <use xlink:href="#DejaVuSans-64" x="2647.566406"/>
    <use xlink:href="#DejaVuSans-73" x="2711.042969"/>
    <use xlink:href="#DejaVuSans-29" x="2763.142578"/>
   </g>
  </g>
 </g>
 <defs>
  <clipPath id="p9593cd79f7">
   <rect x="52.160938" y="36" width="334.8" height="221.76"/>
  </clipPath>
 </defs>
</svg>
